<svg xmlns="http://www.w3.org/2000/svg" style="display:none;">
    <!-- Flux Platform Icon Sprite -->
    <!-- Usage: <svg class="icon"><use href="assets/icons.svg#icon-home"></use></svg> -->

    <symbol id="icon-home" viewBox="0 0 24 24" fill="none" stroke="currentColor" stroke-linecap="round" stroke-linejoin="round">
        <path d="M3 9l9-7 9 7v11a2 2 0 0 1-2 2H5a2 2 0 0 1-2-2z"></path>
        <polyline points="9 22 9 12 15 12 15 22"></polyline>
    </symbol>

    <symbol id="icon-console" viewBox="0 0 24 24" fill="none" stroke="currentColor" stroke-linecap="round" stroke-linejoin="round">
        <polyline points="4 17 10 11 4 5"></polyline>
        <line x1="12" y1="19" x2="20" y2="19"></line>
    </symbol>

    <symbol id="icon-settings" viewBox="0 0 24 24" fill="none" stroke="currentColor" stroke-linecap="round" stroke-linejoin="round">
        <path d="M12.22 2h-4.44a2 2 0 0 0-2 2v16a2 2 0 0 0 2 2h12a2 2 0 0 0 2-2v-8.38M18 14v-4h-4M14 2h4.44a2 2 0 0 1 2 2v2M18 2l-4.5 4.5" />
    </symbol>

    <symbol id="icon-chat" viewBox="0 0 24 24" fill="none" stroke="currentColor" stroke-linecap="round" stroke-linejoin="round">
        <path d="M21 15a4 4 0 0 1-4 4H8l-5 3V7a4 4 0 0 1 4-4h10a4 4 0 0 1 4 4z"></path>
        <path d="M8 10h8"></path>
        <path d="M8 14h5"></path>
    </symbol>

    <symbol id="icon-paperclip" viewBox="0 0 24 24" fill="none" stroke="currentColor" stroke-linecap="round" stroke-linejoin="round">
        <path d="M21.44 11.05l-8.49 8.49a5 5 0 0 1-7.07-7.07l8.49-8.49a3.5 3.5 0 0 1 4.95 4.95l-8.49 8.49a2 2 0 0 1-2.83-2.83l8.49-8.49"></path>
    </symbol>

    <symbol id="icon-start" viewBox="0 0 24 24" fill="none" stroke="currentColor" stroke-linecap="round" stroke-linejoin="round">
        <polygon points="5 3 19 12 5 21 5 3"></polygon>
    </symbol>

    <symbol id="icon-stop" viewBox="0 0 24 24" fill="none" stroke="currentColor" stroke-linecap="round" stroke-linejoin="round">
        <rect x="3" y="3" width="18" height="18" rx="2" ry="2"></rect>
    </symbol>

    <symbol id="icon-save" viewBox="0 0 24 24" fill="none" stroke="currentColor" stroke-linecap="round" stroke-linejoin="round">
        <path d="M19 21H5a2 2 0 0 1-2-2V5a2 2 0 0 1 2-2h11l5 5v11a2 2 0 0 1-2 2z"></path>
        <polyline points="17 21 17 13 7 13 7 21"></polyline>
        <polyline points="7 3 7 8 15 8"></polyline>
    </symbol>

    <symbol id="icon-bot" viewBox="0 0 24 24" fill="none" stroke="currentColor" stroke-linecap="round" stroke-linejoin="round">
        <path d="M12 8V4H8"></path>
        <rect x="4" y="8" width="16" height="12" rx="2"></rect>
        <path d="M2 14h2"></path>
        <path d="M20 14h2"></path>
        <path d="M15 13v2"></path>
        <path d="M9 13v2"></path>
    </symbol>

    <symbol id="icon-llm" viewBox="0 0 24 24" fill="none" stroke="currentColor" stroke-linecap="round" stroke-linejoin="round">
        <path d="M12 2a10 10 0 0 0-2 19.5v-1.5a8 8 0 1 1 0-16c1.7 0 3.3.7 4.5 1.9l-1.5 1.5h5v-5L16.2 4.8A9.9 9.9 0 0 0 12 2Z"></path>
        <path d="m10 10 2 2 2-2"></path>
        <path d="m10 14 2 2 2-2"></path>
    </symbol>

    <symbol id="icon-sd" viewBox="0 0 24 24" fill="none" stroke="currentColor" stroke-linecap="round" stroke-linejoin="round">
        <path d="M20 12V8a2 2 0 0 0-2-2H8a2 2 0 0 0-2 2v4"></path>
        <path d="M18 12h2a2 2 0 0 1 2 2v4a2 2 0 0 1-2 2h-2a2 2 0 0 1-2-2v-4a2 2 0 0 1 2-2Z"></path>
        <path d="M6 12h2a2 2 0 0 1 2 2v4a2 2 0 0 1-2 2H6a2 2 0 0 1-2-2v-4a2 2 0 0 1 2-2Z"></path>
    </symbol>

    <symbol id="icon-system" viewBox="0 0 24 24" fill="none" stroke="currentColor" stroke-linecap="round" stroke-linejoin="round">
        <rect x="2" y="3" width="20" height="18" rx="2"></rect>
        <line x1="2" y1="9" x2="22" y2="9"></line>
        <line x1="8" y1="21" x2="8" y2="9"></line>
        <line x1="16" y1="21" x2="16" y2="9"></line>
    </symbol>

    <symbol id="icon-clipboard" viewBox="0 0 24 24" fill="none" stroke="currentColor" stroke-linecap="round" stroke-linejoin="round">
        <path d="M16 4h2a2 2 0 0 1 2 2v14a2 2 0 0 1-2 2H6a2 2 0 0 1-2-2V6a2 2 0 0 1 2-2h2"></path>
        <rect x="8" y="2" width="8" height="4" rx="1" ry="1"></rect>
    </symbol>

    <symbol id="icon-trash" viewBox="0 0 24 24" fill="none" stroke="currentColor" stroke-linecap="round" stroke-linejoin="round">
        <path d="M3 6h18"></path>
        <path d="M8 6V4a2 2 0 0 1 2-2h4a2 2 0 0 1 2 2v2"></path>
        <path d="M19 6l-1 14a2 2 0 0 1-2 2H8a2 2 0 0 1-2-2L5 6"></path>
        <path d="M10 11v6"></path>
        <path d="M14 11v6"></path>
    </symbol>

    <symbol id="icon-eye" viewBox="0 0 24 24" fill="none" stroke="currentColor" stroke-linecap="round" stroke-linejoin="round">
        <path d="M1 12s4-8 11-8 11 8 11 8-4 8-11 8-11-8-11-8z"></path>
        <circle cx="12" cy="12" r="3"></circle>
    </symbol>

    <symbol id="icon-eye-off" viewBox="0 0 24 24" fill="none" stroke="currentColor" stroke-linecap="round" stroke-linejoin="round">
        <path d="M17.94 17.94A10.07 10.07 0 0 1 12 20c-7 0-11-8-11-8a18.45 18.45 0 0 1 5.06-5.94"></path>
        <path d="M9.9 4.24A9.12 9.12 0 0 1 12 4c7 0 11 8 11 8a18.5 18.5 0 0 1-2.16 3.19"></path>
        <path d="M14.12 14.12a3 3 0 1 1-4.24-4.24"></path>
        <path d="M1 1l22 22"></path>
    </symbol>

    <symbol id="icon-folder" viewBox="0 0 24 24" fill="none" stroke="currentColor" stroke-linecap="round" stroke-linejoin="round">
        <path d="M22 19a2 2 0 0 1-2 2H4a2 2 0 0 1-2-2V5a2 2 0 0 1 2-2h5l2 3h9a2 2 0 0 1 2 2z"></path>
    </symbol>

    <symbol id="icon-plus" viewBox="0 0 24 24" fill="none" stroke="currentColor" stroke-linecap="round" stroke-linejoin="round" stroke-width="2">
        <line x1="12" y1="5" x2="12" y2="19"></line>
        <line x1="5" y1="12" x2="19" y2="12"></line>
    </symbol>

    <symbol id="icon-close" viewBox="0 0 24 24" fill="none" stroke="currentColor" stroke-linecap="round" stroke-linejoin="round" stroke-width="2">
        <line x1="18" y1="6" x2="6" y2="18"></line>
        <line x1="6" y1="6" x2="18" y2="18"></line>
    </symbol>

    <symbol id="icon-clock" viewBox="0 0 24 24" fill="none" stroke="currentColor" stroke-linecap="round" stroke-linejoin="round">
        <circle cx="12" cy="12" r="10"></circle>
        <polyline points="12 6 12 12 16 14"></polyline>
    </symbol>

    <symbol id="icon-info" viewBox="0 0 24 24" fill="none" stroke="currentColor" stroke-linecap="round" stroke-linejoin="round">
        <circle cx="12" cy="12" r="10"></circle>
        <line x1="12" y1="16" x2="12" y2="12"></line>
        <line x1="12" y1="8" x2="12.01" y2="8"></line>
    </symbol>

    <symbol id="icon-mic" viewBox="0 0 24 24" fill="none" stroke="currentColor" stroke-linecap="round" stroke-linejoin="round">
        <path d="M12 1a3 3 0 0 0-3 3v8a3 3 0 0 0 6 0V4a3 3 0 0 0-3-3z"></path>
        <path d="M19 10v2a7 7 0 0 1-14 0v-2"></path>
        <line x1="12" y1="19" x2="12" y2="23"></line>
        <line x1="8" y1="23" x2="16" y2="23"></line>
    </symbol>

    <symbol id="icon-send" viewBox="0 0 24 24" fill="none" stroke="currentColor" stroke-linecap="round" stroke-linejoin="round">
        <line x1="22" y1="2" x2="11" y2="13"></line>
        <polygon points="22 2 15 22 11 13 2 9 22 2"></polygon>
    </symbol>

    <symbol id="icon-download" viewBox="0 0 24 24" fill="none" stroke="currentColor" stroke-linecap="round" stroke-linejoin="round">
        <path d="M21 15v4a2 2 0 0 1-2 2H5a2 2 0 0 1-2-2v-4"></path>
        <polyline points="7 10 12 15 17 10"></polyline>
        <line x1="12" y1="15" x2="12" y2="3"></line>
    </symbol>

    <symbol id="icon-check" viewBox="0 0 24 24" fill="none" stroke="currentColor" stroke-linecap="round" stroke-linejoin="round">
        <polyline points="20 6 9 17 4 12"></polyline>
    </symbol>

    <symbol id="icon-network" viewBox="0 0 24 24" fill="none" stroke="currentColor" stroke-linecap="round" stroke-linejoin="round">
        <circle cx="12" cy="12" r="10"></circle>
        <line x1="2" y1="12" x2="22" y2="12"></line>
        <path d="M12 2a15.3 15.3 0 0 1 4 10 15.3 15.3 0 0 1-4 10 15.3 15.3 0 0 1-4-10 15.3 15.3 0 0 1 4-10z"></path>
    </symbol>

    <symbol id="icon-disk" viewBox="0 0 24 24" fill="none" stroke="currentColor" stroke-linecap="round" stroke-linejoin="round">
        <circle cx="12" cy="12" r="10"></circle>
        <circle cx="12" cy="12" r="3"></circle>
    </symbol>

    <symbol id="icon-cpu" viewBox="0 0 24 24" fill="none" stroke="currentColor" stroke-linecap="round" stroke-linejoin="round">
        <rect x="4" y="4" width="16" height="16" rx="2"></rect>
        <rect x="9" y="9" width="6" height="6"></rect>
        <path d="M15 2v2"></path>
        <path d="M9 2v2"></path>
        <path d="M15 20v2"></path>
        <path d="M9 20v2"></path>
        <path d="M2 15h2"></path>
        <path d="M2 9h2"></path>
        <path d="M20 15h2"></path>
        <path d="M20 9h2"></path>
    </symbol>

    <symbol id="icon-gpu" viewBox="0 0 24 24" fill="none" stroke="currentColor" stroke-linecap="round" stroke-linejoin="round">
        <rect x="2" y="3" width="20" height="14" rx="2" ry="2"></rect>
        <line x1="8" y1="21" x2="16" y2="21"></line>
        <line x1="12" y1="17" x2="12" y2="21"></line>
        <line x1="7" y1="8" x2="7" y2="12"></line>
        <line x1="17" y1="8" x2="17" y2="12"></line>
    </symbol>

    <symbol id="icon-ram" viewBox="0 0 24 24" fill="none" stroke="currentColor" stroke-linecap="round" stroke-linejoin="round">
        <rect x="4" y="4" width="16" height="16" rx="2"></rect>
        <line x1="4" y1="9" x2="20" y2="9"></line>
        <line x1="9" y1="4" x2="9" y2="20"></line>
    </symbol>

    <symbol id="icon-vram" viewBox="0 0 24 24" fill="none" stroke="currentColor" stroke-linecap="round" stroke-linejoin="round">
        <rect x="4" y="4" width="16" height="16" rx="2" />
        <path d="M9 10l3 4 3-4" />
    </symbol>
</svg>
